<?xml version="1.0" encoding="utf-8"?>
<!-- Generator: Adobe Illustrator 27.0.1, SVG Export Plug-In . SVG Version: 6.00 Build 0)  -->
<svg version="1.1" id="Layer_1" xmlns="http://www.w3.org/2000/svg" xmlns:xlink="http://www.w3.org/1999/xlink" x="0px" y="0px"
	 viewBox="0 0 205.3 211.77" style="enable-background:new 0 0 205.3 211.77;" xml:space="preserve">
<style type="text/css">
	.st0{fill:#FFFFFF;}
	.st1{fill:#FFFFFF;stroke:#000000;stroke-miterlimit:10;}
	.st2{opacity:0.41;}
	.st3{fill:none;stroke:#000000;stroke-width:5;stroke-miterlimit:10;}
</style>
<path class="st0" d="M140.64,11.97c-0.3-0.06-0.48-0.07-0.48-0.07l-0.03,0.06c-0.79-0.03-1.59-0.06-2.39-0.06h-8.59H103.6h-2.43
	H67.03h-4.27c0,0-0.54,0.05-1.36,0.27C31.21,15.01,7.58,40.41,7.58,71.35v16.42v91.28c0,13.75,11.14,24.89,24.89,24.89h14.75v-6.1
	l35.45,6.1l15.42-29.87l0,0l22.15,29.87l37.31-6.42v6.42h14.75c13.75,0,24.89-11.14,24.89-24.89V71.35
	C197.19,39.49,172.12,13.48,140.64,11.97z"/>
<g>
	<line class="st3" x1="102.38" y1="85.73" x2="75.35" y2="9.86"/>
	<path class="st3" d="M129.41,9.86l-31.3,91.52l0.24,70.65L82.94,201.9l-44.1-7.59c-9.48-1.9-8.06-9.96-8.06-9.96
		s0.47-97.68,0-105.74c-0.47-8.06,9.01-9.96,9.01-9.96h5.69c6.16-0.47,7.59-7.59,7.59-7.59V22.19c0-11.38,9.96-12.33,9.96-12.33
		H129.41"/>
	<path class="st3" d="M98.6,101.38l-0.24,70.65l22.15,29.87l44.1-7.59c9.48-1.9,8.06-9.96,8.06-9.96s-0.47-97.68,0-105.74
		c0.47-8.06-9.01-9.96-9.01-9.96h-5.69c-6.16-0.47-7.59-7.59-7.59-7.59V22.19c0-11.38-9.96-12.33-9.96-12.33"/>
	<line class="st3" x1="40.17" y1="81.15" x2="40.17" y2="88.98"/>
	<line class="st3" x1="40.17" y1="94.8" x2="40.17" y2="121.03"/>
	<path class="st3" d="M7.84,85.73v91.28c0,13.75,11.14,24.89,24.89,24.89h14.75v-6.56"/>
	<path class="st3" d="M103.86,9.86H67.29c-32.83,0-59.45,26.62-59.45,59.45"/>
	<path class="st3" d="M101.43,9.86h36.57c32.83,0,59.45,26.62,59.45,59.45v107.7c0,13.75-11.14,24.89-24.89,24.89h-14.75v-6.56"/>
	<rect x="125.53" y="127.32" class="st3" width="33.41" height="10.37"/>
	<rect x="48.33" y="127.32" class="st3" width="33.41" height="10.37"/>
</g>
</svg>
