<?xml version="1.0" encoding="utf-8"?>
<!-- Generator: Adobe Illustrator 27.0.1, SVG Export Plug-In . SVG Version: 6.00 Build 0)  -->
<svg version="1.1" id="Layer_1" xmlns="http://www.w3.org/2000/svg" xmlns:xlink="http://www.w3.org/1999/xlink" x="0px" y="0px"
	 viewBox="0 0 121.86 211.77" style="enable-background:new 0 0 121.86 211.77;" xml:space="preserve">
<style type="text/css">
	.st0{fill:#FFFFFF;}
	.st1{fill:#FFFFFF;stroke:#000000;stroke-miterlimit:10;}
	.st2{opacity:0.41;}
	.st3{fill:none;stroke:#000000;stroke-width:5;stroke-miterlimit:10;}
</style>
<polygon class="st1" points="22.01,11.22 22.01,25.55 16.04,25.55 15.69,187.45 20.16,190.45 20.01,200.74 48.91,200.74 
	48.91,191.05 53.27,188.82 60.93,77.31 63.68,77.31 71.61,187.45 75.83,191.3 75.83,200.74 104.08,200.74 104.08,190.81 
	109.53,187.45 109.53,22.65 102.84,21.55 102.09,9.91 "/>
<path d="M106.04,18.3l-0.07-5.39c-0.03-3.18-2.62-5.73-5.8-5.73h-37.7h-37.7c-3.17,0-5.76,2.56-5.8,5.73l-0.06,5.39
	c-3.18,0.03-5.75,2.62-5.75,5.8v163.35c0,2.69,1.88,4.86,4.36,5.51c-0.01,0.1-0.06,0.18-0.06,0.28v5.16c0,3.21,2.59,5.8,5.8,5.8
	h23.29c3.2,0,5.8-2.59,5.8-5.8v-5.16c0-0.09-0.05-0.18-0.05-0.27c2.26-0.6,4.03-2.44,4.32-4.85l5.84-99.32l5.84,99.32
	c0.29,2.41,2.06,4.26,4.32,4.85c0,0.09-0.05,0.17-0.05,0.27v5.16c0,3.21,2.59,5.8,5.8,5.8h23.29c3.21,0,5.8-2.59,5.8-5.8v-5.16
	c0-0.1-0.05-0.18-0.06-0.28c2.49-0.65,4.36-2.82,4.36-5.51V24.1C111.78,20.92,109.21,18.33,106.04,18.3z M62.48,12.98h37.7
	l0.11,9.67h-75.6l0.1-9.67H62.48z M46.58,198.41H23.29v-5.16h23.29V198.41z M58.09,76.51l-7.21,110.94h-4.3H23.29h-4.3V25.55h86.99
	v161.9h-4.3H78.38h-4.3L66.87,76.51C66.26,71.3,58.7,71.3,58.09,76.51z M101.67,198.41H78.38v-5.16h23.29V198.41z"/>
<rect x="18.99" y="22.65" width="86.99" height="6.46"/>
</svg>
