<?xml version="1.0" encoding="utf-8"?>
<!-- Generator: Adobe Illustrator 27.0.1, SVG Export Plug-In . SVG Version: 6.00 Build 0)  -->
<svg version="1.1" id="Layer_1" xmlns="http://www.w3.org/2000/svg" xmlns:xlink="http://www.w3.org/1999/xlink" x="0px" y="0px" width="20px" height="30px"
	 viewBox="0 0 230.59 211.77" style="enable-background:new 0 0 230.59 211.77;" xml:space="preserve">
<style type="text/css">
	.st0{fill:#FFFFFF;}
	.st1{fill:#FFFFFF;stroke:#000000;stroke-miterlimit:10;}
	.st2{opacity:0.41;}
	.st3{fill:none;stroke:#000000;stroke-width:5;stroke-miterlimit:10;}
</style>
<path class="st1" d="M6.19,67.45L48,19.35c0,0,18.04-14.32,40.94-8.88c0,0,2.86,20.62,25.2,20.33c0,0,25.12,0.75,28.02-21.56
	c0,0,24.32-4.1,41.97,10.06l40.88,48.15l-49.52,32.89l-1.15,99.47H55.73l-0.29-95.56L6.19,67.45z"/>
<g>
	<path d="M228.84,68.53c0.13-0.88-0.09-1.78-0.62-2.47c-0.22-0.29-22.48-29.29-37.77-45.13C175.86,5.81,156.6,6.21,145.08,6.44
		c-1.29,0.03-2.49,0.05-3.57,0.05c-1.57,0-2.84,1.37-2.84,3.07c0,10.18-10.49,18.46-23.38,18.46S91.92,19.75,91.92,9.57
		c0-1.7-1.27-3.07-2.84-3.07c-1.09,0-2.29-0.03-3.57-0.05C74,6.21,54.73,5.81,40.13,20.93C24.84,36.77,2.59,65.77,2.36,66.06
		c-0.53,0.68-0.75,1.59-0.62,2.47c0.13,0.88,0.62,1.66,1.32,2.12l49.89,33.2v93.4c0,3.4,2.54,6.15,5.66,6.15h113.35
		c3.13,0,5.67-2.76,5.67-6.15v-93.4l49.89-33.2C228.23,70.18,228.71,69.41,228.84,68.53z M177.63,96.64V43.42h-5.67v153.84H58.62
		V43.42h-5.66v53.22L8.83,67.28c5.89-7.57,22.89-29.12,35.22-41.89C56.95,12.01,74.08,12.37,85.4,12.59
		c0.36,0.01,0.72,0.02,1.07,0.02c1.77,12.14,14.03,21.57,28.82,21.57c14.8,0,27.05-9.43,28.82-21.57c0.35,0,0.71-0.01,1.07-0.02
		c11.33-0.22,28.44-0.58,41.36,12.79c12.31,12.76,29.32,34.32,35.22,41.89L177.63,96.64z"/>
	<line class="st3" x1="66.18" y1="100.34" x2="66.18" y2="62.8"/>
	<line class="st3" x1="66.18" y1="55.51" x2="66.18" y2="47.74"/>
</g>
</svg>
