<?xml version="1.0" encoding="utf-8"?>
<!-- Generator: Adobe Illustrator 27.0.1, SVG Export Plug-In . SVG Version: 6.00 Build 0)  -->
<svg version="1.1" id="Layer_1" xmlns="http://www.w3.org/2000/svg" xmlns:xlink="http://www.w3.org/1999/xlink" x="0px" y="0px"
	 viewBox="0 0 190.81 211.77" style="enable-background:new 0 0 190.81 211.77;" xml:space="preserve">
<style type="text/css">
	.st0{fill:#FFFFFF;}
	.st1{fill:#FFFFFF;stroke:#000000;stroke-miterlimit:10;}
	.st2{opacity:0.41;}
	.st3{fill:none;stroke:#000000;stroke-width:5;stroke-miterlimit:10;}
</style>
<g>
	<path class="st0" d="M11.9,65.17v10.27v117.47h25.14v11.48h59.39h0.69h59.39v-11.48h25.14V75.44V58.36V40.18
		C177.29,10.53,150.8,7.37,150.8,7.37H135.8c0,21.63-17.44,39.18-39.03,39.36C75.18,46.55,57.74,29,57.74,7.37h-1.16H42.74
		c0,0-26.49,3.16-30.83,32.81v18.18"/>
</g>
<g>
	<path class="st3" d="M128.81,7.37c0,17.12-13.88,31-31,31s-31-13.88-31-31h-9.88"/>
	<line class="st3" x1="12.25" y1="174.93" x2="37.38" y2="174.93"/>
	<line class="st3" x1="37.38" y1="182.8" x2="97.46" y2="182.8"/>
	<line class="st3" x1="52.5" y1="204.4" x2="52.5" y2="182.8"/>
	<line class="st3" x1="52.5" y1="117.07" x2="52.5" y2="79.53"/>
	<line class="st3" x1="52.5" y1="72.24" x2="52.5" y2="64.47"/>
	<line class="st3" x1="70.16" y1="204.4" x2="70.16" y2="182.8"/>
	<line class="st3" x1="89.09" y1="204.4" x2="89.09" y2="182.8"/>
	<polyline class="st3" points="12.25,75.44 12.25,192.92 37.38,192.92 37.38,204.4 97.46,204.4 	"/>
	<path class="st3" d="M97.46,46.74c-21.74,0-39.37-17.63-39.37-39.37H43.08c0,0-26.49,3.16-30.83,32.81v18.18"/>
	<line class="st3" x1="37.38" y1="55.98" x2="37.38" y2="192.92"/>
	<line class="st3" x1="126.27" y1="7.37" x2="136.14" y2="7.37"/>
	<line class="st3" x1="181.98" y1="174.93" x2="156.85" y2="174.93"/>
	<line class="st3" x1="156.85" y1="182.8" x2="96.77" y2="182.8"/>
	<line class="st3" x1="141.73" y1="204.4" x2="141.73" y2="182.8"/>
	<line class="st3" x1="124.07" y1="204.4" x2="124.07" y2="182.8"/>
	<line class="st3" x1="105.13" y1="204.4" x2="105.13" y2="182.8"/>
	<path class="st3" d="M96.77,46.74c21.74,0,39.37-17.63,39.37-39.37h15.01c0,0,26.49,3.16,30.83,32.81v18.18v17.08v117.47h-25.14
		v11.48H96.77"/>
	<line class="st3" x1="156.85" y1="55.98" x2="156.85" y2="192.92"/>
</g>
</svg>
